<?xml version="1.0" encoding="utf-8"?>
<!-- Generator: Adobe Illustrator 24.0.0, SVG Export Plug-In . SVG Version: 6.00 Build 0)  -->
<svg version="1.1" id="Layer_1" xmlns="http://www.w3.org/2000/svg" xmlns:xlink="http://www.w3.org/1999/xlink" x="0px" y="0px"
	 viewBox="0 0 500 500" style="enable-background:new 0 0 500 500;" xml:space="preserve">
<style type="text/css">
	.st0{fill:#E3E5E6;}
	.st1{fill:#ADB3B6;}
</style>
<rect class="st0" width="500" height="500"/>
<path class="st1" d="M249.14,501c-79.61,0-159.22,0-238.84,0c-3.9,0-3.44-0.26-2.87-5.52c0.58-5.41,1.42-10.8,2.72-16.08
	c3.02-12.25,7.64-23.85,13.65-34.93c4.51-8.31,9.96-15.93,15.63-23.43c2.09-2.76,4.34-5.4,6.74-7.89
	c4.27-4.44,8.56-8.87,13.07-13.07c5.9-5.49,12.24-10.46,18.76-15.19c12.01-8.7,24.78-16.12,38.17-22.47
	c14.85-7.04,30.23-12.68,46.07-17.06c10.5-2.91,21.12-5.3,31.86-7.05c8.51-1.39,17.08-2.42,25.69-3.18
	c12.72-1.13,25.44-1.64,38.18-1.28c11.28,0.32,22.53,1.22,33.75,2.66c16.65,2.13,33.03,5.46,49.11,10.23
	c12.68,3.76,25.06,8.34,37.12,13.81c13.61,6.19,26.62,13.42,38.92,21.91c8.84,6.1,17.1,12.9,24.97,20.24
	c10.24,9.57,19.22,20.15,26.9,31.83c9.73,14.81,16.63,30.87,20.3,48.22c1.17,5.53,1.64,11.21,2.44,16.82
	c0.13,0.9-0.12,1.41-1.09,1.41c-0.72,0-1.45,0.01-2.17,0.01C408.52,501,328.83,501,249.14,501z"/>
<path class="st1" d="M249.8,326.24c-14.16,0.66-27.71-2.38-40.74-7.44c-11.35-4.41-21.79-10.58-31.29-18.33
	c-4.99-4.07-9.62-8.5-13.95-13.2c-6.66-7.24-12.4-15.23-17.14-23.88c-5.96-10.86-10.52-22.29-13.37-34.37
	c-1.59-6.75-2.67-13.58-3.36-20.51c-0.41-4.14-0.61-8.35-0.58-12.41c0.05-5.69,0.25-11.45,1.07-17.17c1.03-7.2,2.38-14.31,4.36-21.3
	c3.06-10.76,7.38-20.96,13-30.65c3.94-6.79,8.47-13.16,13.49-19.16c4.57-5.46,9.68-10.39,15.21-14.94
	c7.38-6.07,15.23-11.36,23.8-15.53c11.31-5.51,23.23-9.01,35.74-10.54c6.14-0.75,12.3-1.17,18.46-0.85
	c13.76,0.72,27.05,3.52,39.77,8.99c10.15,4.36,19.54,9.97,28.15,16.85c11.37,9.09,20.71,20.02,28.34,32.37
	c7.47,12.09,12.82,25.1,16.12,38.92c1.72,7.23,2.86,14.54,3.38,21.99c0.42,6.02,0.48,12.02,0.32,18.02
	c-0.28,10.75-2.16,21.3-5.13,31.63c-4.09,14.2-10.3,27.43-18.78,39.56c-15.21,21.76-35.16,37.39-60.31,46.12
	c-7.72,2.68-15.7,4.38-23.85,5.37C258.26,326.3,254.03,326.02,249.8,326.24z"/>
</svg>
